{"title":"Les vacances de Monsieur Hulot (1953) BDRip x264 Ukr sub","uid":10292355,"size":1159228128,"categoryP":"video","categoryS":"movies","magnet":"?xt=urn:btih:918cbe985c3fd3bc6294ab1363386d360ba30dc0&amp;dn=Les+vacances+de+Monsieur+Hulot+%281953%29+BDRip+x264+Ukr+sub&amp;tr=udp%3A%2F%2Ftracker.openbittorrent.com%3A80&amp;tr=udp%3A%2F%2Fopen.demonii.com%3A1337&amp;tr=udp%3A%2F%2Ftracker.coppersurfer.tk%3A6969&amp;tr=udp%3A%2F%2Fexodus.desync.com%3A6969","seeders":1,"leechers":0,"uploader":"orysia","files":-1,"time":1401876471,"description":"Director: Jacques Tati\nStars: Jacques Tati, Nathalie Pascaud, Louis Perrault\n\nMonsieur Hulot goes on a holiday to a seaside resort, but accidents and misunderstandings follow him where ever he goes. The peace and quiet of the hotel guests don't last very long with Hulot around, because although his intensions are good, they always turn out catastrophically.\n\nThis is a digitally restored version of the movie. Source: LES_VACANCES_DE_MONSIEUR_HULOT_1953_BD-REMUX\n\nFormat                                   : MPEG-4\nFormat profile                           : Base Media\nCodec ID                                 : isom\nFile size                                : 1.08 GiB\nDuration                                 : 1h 28mn\nOverall bit rate mode                    : Variable\nOverall bit rate                         : 1 753 Kbps\nMovie name                               : Les vacances de Monsieur Hulot*1953 /antusyrzhuk\nGenre                                    : Comedy\nRecorded date                            : 1953\n\n\nVideo\nID                                       : 1\nFormat                                   : AVC\nFormat/Info                              : Advanced Video Codec\nFormat profile                           : &lt;a class=&quot;__cf_email__&quot; href=&quot;/cdn-cgi/l/email-protection&quot; data-cfemail=&quot;a2efc3cbcce2ee918c93&quot;&gt;[email&amp;#160;protected]&lt;/a&gt;&lt;script cf-hash='f9e31' type=&quot;text/javascript&quot;&gt;\n/* &lt;![CDATA[ */!function(){try{var t=&quot;currentScript&quot;in document?document.currentScript:function(){for(var t=document.getElementsByTagName(&quot;script&quot;),e=t.length;e--;)if(t[e].getAttribute(&quot;cf-hash&quot;))return t[e]}();if(t&amp;&amp;t.previousSibling){var e,r,n,i,c=t.previousSibling,a=c.getAttribute(&quot;data-cfemail&quot;);if(a){for(e=&quot;&quot;,r=parseInt(a.substr(0,2),16),n=2;a.length-n;n+=2)i=parseInt(a.substr(n,2),16)^r,e+=String.fromCharCode(i);e=document.createTextNode(e),c.parentNode.replaceChild(e,c)}}}catch(u){}}();/* ]]&gt; */&lt;/script&gt;\nFormat settings, CABAC                   : Yes\nFormat settings, ReFrames                : 5 frames\nCodec ID                                 : avc1\nCodec ID/Info                            : Advanced Video Coding\nDuration                                 : 1h 28mn\nBit rate                                 : 1 662 Kbps\nMaximum bit rate                         : 7 612 Kbps\nWidth                                    : 830 pixels\nHeight                                   : 604 pixels\nDisplay aspect ratio                     : 1.374\nFrame rate mode                          : Constant\nFrame rate                               : 24.000 fps\nColor space                              : YUV\nChroma subsampling                       : 4:2:0\nBit depth                                : 8 bits\nScan type                                : Progressive\nBits/(Pixel*Frame)                       : 0.138\nStream size                              : 1.02 GiB (95%)\n\n\nAudio\nID                                       : 2\nFormat                                   : AAC\nFormat/Info                              : Advanced Audio Codec\nFormat profile                           : LC\nCodec ID                                 : 40\nDuration                                 : 1h 28mn\nBit rate mode                            : Variable\nBit rate                                 : 87.0 Kbps\nMaximum bit rate                         : 123 Kbps\nChannel(s)                               : 2 channels\nChannel positions                        : Front: L R\nSampling rate                            : 48.0 KHz\nCompression mode                         : Lossy\nStream size                              : 54.9 MiB (5%)\nLanguage                                 : French\n\n+ Ukrainian subtitles\n\nScreenshots:\nsource http://postimg.org/image/jbx30tyn9/\nreencoded http://postimg.org/image/v2b0i7rfp/\n\nsource http://postimg.org/image/e3222yg85/\nreencoded http://postimg.org/image/470z3bag5/\n\nsource http://postimg.org/image/nde66hqxx/\nreencoded http://postimg.org/image/pjd2eqjs5/\n\nthumbnails http://postimg.org/image/62scs7oo5/\n\n\nEnglish subtitles: http://subscene.com/subtitles/mr-hulots-holiday/english/433591\n\nFor more movies please visit http://cinemasterpiece(dot)wordpress(dot)com/\n\n\n","torrent":{"xt":"urn:btih:918cbe985c3fd3bc6294ab1363386d360ba30dc0","amp;dn":"Les+vacances+de+Monsieur+Hulot+%281953%29+BDRip+x264+Ukr+sub","amp;tr":["udp%3A%2F%2Ftracker.openbittorrent.com%3A80","udp%3A%2F%2Fopen.demonii.com%3A1337","udp%3A%2F%2Ftracker.coppersurfer.tk%3A6969","udp%3A%2F%2Fexodus.desync.com%3A6969"],"infoHash":"918cbe985c3fd3bc6294ab1363386d360ba30dc0","infoHashBuffer":{"type":"Buffer","data":[145,140,190,152,92,63,211,188,98,148,171,19,99,56,109,54,11,163,13,192]},"announce":[],"urlList":[]}}